<svg xmlns="http://www.w3.org/2000/svg" width="48" height="48" viewBox="0 0 48 48" fill="none" stroke-linecap="round" stroke-linejoin="round">
  <path d="M8 20h23v9.5A8.5 8.5 0 0 1 22.5 38h-6A8.5 8.5 0 0 1 8 29.5V20Z" fill="#E8ECF2" stroke="#56677F" stroke-width="2.2"/>
  <path d="M31 23h3.5a4.5 4.5 0 0 1 0 9H31M6 41h28" stroke="#56677F" stroke-width="2"/>
  <path d="M14 15c-2-2 2-3 0-6M21 15c-2-2 2-3 0-6" stroke="#8A6BB8" stroke-width="1.8"/>
  <circle cx="33" cy="16" r="8" fill="#E4F0F7" stroke="#47769B" stroke-width="2.2"/>
  <path d="m39 22 5 5" stroke="#47769B" stroke-width="3"/>
  <path d="m30 16 2 2 4-5" stroke="#6D5AA8" stroke-width="1.8"/>
</svg>
